HIERARCHY
ROOT root
{
	OFFSET 0.000000 0.000000 0.000000
	CHANNELS 6 Xposition Yposition Zposition Zrotation Yrotation Xrotation
	JOINT lhip
	{
		OFFSET 0.058581 -0.082280 -0.017664
		CHANNELS 3 Zrotation Yrotation Xrotation
		JOINT lknee
		{
			OFFSET 0.043451 -0.386469 0.008037
			CHANNELS 3 Zrotation Yrotation Xrotation
			JOINT lankle
			{
				OFFSET -0.014790 -0.426874 -0.037428
				CHANNELS 3 Zrotation Yrotation Xrotation
				JOINT ltoe
				{
					OFFSET 0.041054 -0.060286 0.122042
					CHANNELS 3 Zrotation Yrotation Xrotation
					End Site
					{
						OFFSET 0.000000 0.000000 0.000000
					}
				}
			}
		}
	}
	JOINT rhip
	{
		OFFSET -0.060310 -0.090513 -0.013543
		CHANNELS 3 Zrotation Yrotation Xrotation
		JOINT rknee
		{
			OFFSET -0.043257 -0.383688 -0.004843
			CHANNELS 3 Zrotation Yrotation Xrotation
			JOINT rankle
			{
				OFFSET 0.019056 -0.420046 -0.034562
				CHANNELS 3 Zrotation Yrotation Xrotation
				JOINT rtoe
				{
					OFFSET -0.034840 -0.062106 0.130323
					CHANNELS 3 Zrotation Yrotation Xrotation
					End Site
					{
						OFFSET 0.000000 0.000000 0.000000
					}
				}
			}
		}
	}
	JOINT lowerback
	{
		OFFSET 0.004439 0.124404 -0.038385
		CHANNELS 3 Zrotation Yrotation Xrotation
		JOINT upperback
		{
			OFFSET 0.004488 0.137956 0.026820
			CHANNELS 3 Zrotation Yrotation Xrotation
			JOINT chest
			{
				OFFSET -0.002265 0.056032 0.002855
				CHANNELS 3 Zrotation Yrotation Xrotation
				JOINT lowerneck
				{
					OFFSET -0.013390 0.211636 -0.033468
					CHANNELS 3 Zrotation Yrotation Xrotation
					JOINT upperneck
					{
						OFFSET 0.010113 0.088937 0.050410
						CHANNELS 3 Zrotation Yrotation Xrotation
						End Site
						{
							OFFSET 0.000000 0.000000 0.000000
						}
					}
				}
				JOINT lclavicle
				{
					OFFSET 0.071702 0.114000 -0.018898
					CHANNELS 3 Zrotation Yrotation Xrotation
					JOINT lshoulder
					{
						OFFSET 0.122921 0.045205 -0.019046
						CHANNELS 3 Zrotation Yrotation Xrotation
						JOINT lelbow
						{
							OFFSET 0.255332 -0.015649 -0.022946
							CHANNELS 3 Zrotation Yrotation Xrotation
							JOINT lwrist
							{
								OFFSET 0.265709 0.012698 -0.007375
								CHANNELS 3 Zrotation Yrotation Xrotation
								End Site
								{
									OFFSET 0.000000 0.000000 0.000000
								}
							}
						}
					}
				}
				JOINT rclavicle
				{
					OFFSET -0.082954 0.112472 -0.023707
					CHANNELS 3 Zrotation Yrotation Xrotation
					JOINT rshoulder
					{
						OFFSET -0.113228 0.046853 -0.008472
						CHANNELS 3 Zrotation Yrotation Xrotation
						JOINT relbow
						{
							OFFSET -0.260127 -0.014369 -0.031269
							CHANNELS 3 Zrotation Yrotation Xrotation
							JOINT rwrist
							{
								OFFSET -0.269108 0.006794 -0.006027
								CHANNELS 3 Zrotation Yrotation Xrotation
								End Site
								{
									OFFSET 0.000000 0.000000 0.000000
								}
							}
						}
					}
				}
			}
		}
	}
}
MOTION
Frames: 14
Frame Time: 0.033333
0.616107 0.126453 0.996191 87.471039 -3.088432 90.379961 8.302802 3.537042 3.918355 -3.266935 -5.913086 1.102301 -1.337883 7.679391 -5.007562 0.000000 -0.000000 0.000000 -2.032915 -5.175354 -3.834560 1.645682 -4.170740 13.319488 0.239718 -11.892827 -11.127993 0.000000 -0.000000 0.000000 0.849611 -3.195297 10.767079 0.418058 -3.937116 1.226846 -1.424898 -3.566974 3.362878 0.173488 3.655733 -1.890890 -1.840797 0.271111 9.783670 -25.821842 6.955978 3.664115 -53.093266 -9.547911 9.790907 0.905362 -39.156110 15.749615 -3.229144 -4.358315 -10.108488 26.553316 -7.420909 1.554653 53.034221 -4.325708 9.933938 -5.714774 7.474349 -1.938762 7.177413 -1.934927 -3.724296 
0.616557 0.126194 0.996076 86.397759 -2.934376 90.493128 8.436414 3.860537 4.322217 -3.221140 -5.809784 0.689514 -1.287033 8.031140 -4.914212 0.000000 -0.000000 0.000000 -1.933278 -5.210369 -4.033913 1.726609 -3.840649 13.389258 0.291205 -11.392940 -11.114196 0.000000 -0.000000 0.000000 0.861794 -3.261504 10.685163 0.477883 -3.913972 1.428460 -1.384557 -3.548810 3.574728 0.251008 3.594469 -1.737544 -1.732531 0.097731 9.994679 -25.955617 7.020816 3.266010 -53.023917 -9.455959 9.803141 0.690779 -38.731706 15.857406 -3.148653 -4.273477 -9.627458 26.376703 -7.702084 1.543927 52.518527 -4.525561 9.986571 -5.607744 7.791795 -1.462862 7.082865 -1.844432 -3.337371 
0.615579 0.126668 0.996245 85.483982 -2.874661 90.796878 8.386375 3.874301 4.175957 -3.202819 -5.555668 0.738138 -1.188079 8.481719 -4.855600 0.000000 -0.000000 0.000000 -1.921323 -4.874969 -4.522640 1.817243 -3.394992 13.435379 0.372293 -11.268007 -10.904936 0.000000 -0.000000 0.000000 0.895151 -3.343455 10.660903 0.447978 -3.906186 1.433256 -1.421447 -3.548594 3.615297 0.064626 3.715816 -1.626653 -1.629450 0.246319 10.150369 -26.045511 7.041268 3.232093 -52.891476 -9.521966 9.675248 0.774768 -38.432217 15.594482 -3.084050 -4.138376 -9.397588 26.311948 -7.789534 1.535517 52.201734 -4.634625 10.183938 -5.544121 8.113218 -1.052110 7.255843 -2.146209 -3.014327 
0.614836 0.127243 0.996039 84.746528 -2.809104 90.886293 8.444922 4.089037 4.279977 -3.248071 -5.346496 0.538653 -1.042242 8.682649 -4.720312 0.000000 -0.000000 0.000000 -1.871220 -4.734726 -4.828829 1.791832 -3.117875 13.650623 0.360089 -11.091976 -10.912993 0.000000 -0.000000 0.000000 0.763544 -3.445871 10.637491 0.523779 -3.948495 1.660889 -1.354801 -3.583988 3.583310 -0.172973 3.901764 -1.297566 -1.834587 0.284396 10.768533 -25.919724 6.942729 3.189579 -53.027895 -9.640413 9.612924 1.034737 -37.871506 15.375900 -3.122610 -4.095853 -9.286173 26.137030 -7.640946 1.555684 52.016592 -4.316923 10.355126 -5.285842 7.904609 -0.733275 7.349557 -2.010512 -2.886401 
0.613824 0.128169 0.996200 84.315725 -2.706362 90.878930 8.488016 4.151309 4.365832 -3.208639 -5.185267 0.450140 -1.106240 8.786275 -4.768121 0.000000 -0.000000 0.000000 -1.842216 -4.584082 -4.740965 1.770128 -3.332948 13.303881 0.357979 -10.748370 -10.638167 0.000000 -0.000000 0.000000 0.863301 -3.556599 10.820139 0.572910 -3.966111 1.545831 -1.377312 -3.593823 3.559414 -0.541627 3.924245 -0.559052 -2.164657 0.090250 11.645453 -25.953316 6.788336 3.372189 -52.965336 -9.879739 9.604532 1.237472 -37.509485 15.097800 -3.149895 -4.245844 -9.289704 26.192893 -7.351544 1.751810 52.020716 -3.852421 10.431865 -5.195789 7.512787 -0.648808 7.080056 -1.668659 -2.814063 
0.612247 0.129255 0.996107 83.817973 -2.704010 91.016689 8.371201 4.117607 4.251561 -3.181525 -5.081396 0.523833 -0.853727 8.775432 -4.557047 0.000000 -0.000000 0.000000 -1.861844 -4.382988 -5.260721 1.722866 -2.988900 13.725495 0.395168 -10.800108 -10.562948 0.000000 -0.000000 0.000000 0.866177 -3.508374 10.719686 0.685072 -3.962539 1.531624 -1.465127 -3.655525 3.528170 -0.937532 3.984515 0.283746 -2.683272 -0.213071 12.809320 -25.824021 6.621782 3.621821 -52.961450 -10.257377 9.657300 1.452969 -37.244437 14.668490 -3.191603 -4.158014 -9.211361 26.408186 -6.848026 2.095385 52.117439 -3.236817 10.687042 -5.504473 7.516813 -1.001628 7.132859 -1.639635 -2.700805 
0.612269 0.130493 0.995731 83.476329 -2.668186 90.750547 8.307889 4.144015 4.809748 -3.124945 -5.019973 0.187860 -0.807531 8.786092 -4.674762 0.000000 -0.000000 0.000000 -1.945547 -4.447685 -5.031861 1.702689 -2.821976 13.753207 0.515415 -10.529518 -10.459555 0.000000 -0.000000 0.000000 0.885711 -3.387490 10.302442 0.818917 -3.922521 2.056321 -1.542019 -3.651908 3.739523 -1.318947 3.859323 1.317333 -3.247266 -0.663423 14.011578 -25.685965 6.151378 4.015668 -52.938586 -10.792394 9.826481 1.686083 -37.120836 14.212503 -3.309364 -4.194430 -9.387752 26.630116 -6.214700 2.151037 52.130275 -2.442425 10.774775 -5.519158 7.211691 -1.361366 7.126107 -1.488615 -2.904118 
0.610416 0.132228 0.995835 83.440269 -2.684117 90.675290 8.174864 3.973725 4.825665 -3.138621 -4.921792 0.172338 -0.862465 8.739440 -4.692348 0.000000 -0.000000 0.000000 -2.066791 -4.137869 -5.080939 1.691481 -2.984159 13.706637 0.589209 -10.598214 -10.311324 0.000000 -0.000000 0.000000 0.969359 -3.327109 9.953828 0.927773 -3.877827 2.311087 -1.637856 -3.566779 3.905034 -1.697161 3.610511 2.600081 -3.778407 -1.338316 15.286049 -25.632876 5.520100 4.547288 -52.871363 -11.484301 10.026249 2.237588 -37.246948 13.248007 -3.226462 -4.091927 -9.066175 27.109724 -5.553910 2.055729 52.134847 -1.527774 10.750899 -5.835050 6.846128 -2.239328 7.036988 -1.587970 -2.907196 
0.609666 0.134134 0.995897 83.623225 -2.826667 90.507405 7.987512 4.007496 4.994837 -3.253378 -5.000951 0.047040 -0.900474 8.691791 -4.727123 0.000000 -0.000000 0.000000 -2.373352 -4.348703 -5.061854 1.663309 -3.075878 13.871383 0.658163 -10.553909 -10.273628 0.000000 -0.000000 0.000000 0.735778 -3.338604 10.068516 1.124289 -3.957739 2.112433 -1.502872 -3.640196 3.822605 -1.786174 3.558502 3.793654 -4.637465 -1.980290 16.944355 -25.603723 5.826122 4.168953 -52.795430 -11.546714 10.400390 1.777249 -37.662663 13.605867 -3.542999 -4.039145 -9.321985 27.588601 -5.176038 1.979189 51.682797 -0.556168 10.872829 -5.931325 6.605306 -3.284681 6.946246 -1.506361 -2.812018 
0.609104 0.136151 0.996039 84.030934 -2.951878 90.227605 7.758895 4.000732 5.196064 -3.272911 -5.287048 -0.023804 -1.075230 8.629128 -4.770649 0.000000 -0.000000 0.000000 -2.686239 -4.564945 -4.901308 1.637787 -3.096686 14.043129 0.887719 -10.548891 -10.309483 0.000000 -0.000000 0.000000 0.464853 -3.331008 9.885004 1.389806 -3.987368 1.934255 -1.401915 -3.907853 4.120175 -1.616261 3.425304 5.178578 -5.479619 -2.707809 18.693028 -25.541920 6.242486 3.706854 -52.915892 -11.763089 10.946143 1.567769 -38.135929 13.782388 -3.675231 -4.060198 -9.006234 28.039380 -4.797592 1.205422 50.973546 0.549003 11.273975 -5.752558 6.097443 -4.038444 6.998972 -1.651033 -2.386214 
0.607495 0.138945 0.996129 84.713670 -3.110185 89.785441 7.457121 3.844862 5.527933 -3.237057 -5.532222 -0.252678 -1.116880 8.423020 -4.615861 0.000000 -0.000000 0.000000 -2.999288 -4.634668 -4.574718 1.484588 -3.398683 14.132844 0.930802 -10.713812 -10.244785 0.000000 -0.000000 0.000000 0.485962 -3.119584 9.606488 1.460407 -4.023260 2.266960 -1.442424 -3.811434 4.346702 -1.381738 2.869472 5.663679 -5.720773 -3.473685 19.235221 -25.425743 5.585943 4.072694 -52.804841 -12.343892 11.222407 1.699248 -38.778657 13.310256 -3.584707 -4.059504 -9.496387 28.508373 -4.203131 1.059083 50.731091 1.655783 11.204957 -6.104673 5.938995 -4.893816 6.657360 -1.448645 -2.413811 
0.605349 0.141685 0.996218 85.541535 -3.146413 89.428599 7.297051 3.884855 5.519641 -3.217775 -5.886819 -0.168016 -1.082188 7.987123 -4.590567 0.000000 -0.000000 0.000000 -3.185597 -4.656244 -4.364670 1.367344 -3.895560 14.245267 0.898652 -10.914587 -10.188560 0.000000 -0.000000 0.000000 0.475929 -3.023171 9.707836 1.601278 -4.105084 2.103566 -1.259848 -3.694790 4.069374 -1.331214 3.008720 6.965171 -5.686307 -3.221219 19.248790 -25.277609 5.345619 4.392285 -52.999275 -12.537797 11.304588 1.581717 -39.388812 13.775169 -3.914825 -4.092359 -9.702485 28.558336 -3.646000 1.024400 50.572313 2.430394 11.040804 -6.372621 5.948137 -5.087382 6.649002 -1.385680 -2.377439 
0.604070 0.144600 0.996475 86.346212 -3.106975 88.871587 7.217623 3.969645 5.785229 -3.173945 -6.201282 0.038109 -1.270604 7.579629 -4.662267 0.000000 -0.000000 0.000000 -3.295549 -4.830530 -3.923756 1.200117 -4.053943 14.421319 0.927512 -11.103123 -10.263958 0.000000 -0.000000 0.000000 0.696220 -3.040463 9.749274 1.607322 -4.014627 2.046224 -1.301266 -3.487634 4.072690 -1.132239 2.743691 7.248166 -6.035800 -3.382329 20.044830 -25.363154 5.190582 4.421444 -52.987880 -12.483121 11.549910 1.769685 -40.291497 13.493949 -3.669954 -4.189113 -9.675338 28.825452 -2.891867 1.093990 50.225092 3.268806 10.970586 -6.484131 5.949045 -5.843413 6.521153 -1.158533 -2.307877 
0.601504 0.147522 0.996743 87.075678 -3.126778 88.386062 7.020528 3.690540 5.857728 -3.157142 -6.471373 0.187017 -1.140427 7.444343 -4.672395 0.000000 -0.000000 0.000000 -3.496691 -4.755472 -3.583872 1.047969 -4.489294 14.550349 0.904718 -11.113583 -10.188670 0.000000 -0.000000 0.000000 0.635131 -2.869513 9.869110 1.687770 -3.864892 2.047488 -1.057142 -3.288821 3.663818 -0.987446 2.577666 7.886752 -6.003901 -3.195941 19.555509 -25.369492 4.785647 4.694970 -53.169404 -12.434493 11.583159 1.787644 -40.551477 13.607240 -4.075317 -4.261746 -10.029506 28.777324 -2.238948 1.272356 50.083205 4.160323 10.654649 -6.715121 6.035241 -6.152325 6.661244 -1.092593 -2.415116 
